/* XPM */
static char *_1594_b04e11b24d99b42a94990bd0123b8502c141de7c402350dfd9a8fa54b888c63f[] = {
/* columns rows colors chars-per-pixel */
"64 64 256 2 ",
"   c #0A0717",
".  c #0A0817",
"X  c #0C091C",
"o  c #0E0B22",
"O  c #0F0B29",
"+  c #110D25",
"@  c #130E2C",
"#  c #190F28",
"$  c #15112C",
"%  c #18112B",
"&  c #140E32",
"*  c #180E3A",
"=  c #161133",
"-  c #1A1334",
";  c #171139",
":  c #1B143B",
">  c #1E193C",
",  c #26173A",
"<  c #34153A",
"1  c #5B2E3C",
"2  c #1D1543",
"3  c #1F1846",
"4  c #221644",
"5  c #231A45",
"6  c #2A1A44",
"7  c #24154A",
"8  c #241B4B",
"9  c #2A1B4B",
"0  c #341D48",
"q  c #261C52",
"w  c #291E53",
"e  c #26195A",
"r  c #2B1E5A",
"t  c #321E54",
"y  c #28214B",
"u  c #37234C",
"i  c #2C2253",
"p  c #2D225B",
"a  c #31245D",
"s  c #382558",
"d  c #342A5D",
"f  c #38305A",
"g  c #301D61",
"h  c #2E2261",
"j  c #332464",
"k  c #392664",
"l  c #352964",
"z  c #3A2963",
"x  c #352669",
"c  c #39276B",
"v  c #36296B",
"b  c #3B2A6C",
"n  c #3C316A",
"m  c #3D2B72",
"M  c #3B2C78",
"N  c #3D3073",
"B  c #451F45",
"V  c #452759",
"C  c #502D52",
"Z  c #733855",
"A  c #452B66",
"S  c #422D6E",
"D  c #512D6B",
"F  c #45346A",
"G  c #563568",
"H  c #422D74",
"J  c #4A2C74",
"K  c #432E7A",
"L  c #443274",
"P  c #4A3274",
"I  c #44327B",
"U  c #4A337C",
"Y  c #4A3A7C",
"T  c #553778",
"R  c #6F366E",
"E  c #653B75",
"W  c #7D4A51",
"Q  c #534676",
"!  c #6A467C",
"~  c #754771",
"^  c #87343E",
"/  c #8D493F",
"(  c #903552",
")  c #A43F58",
"_  c #8C4C79",
"`  c #AD5961",
"'  c #C15A4C",
"]  c #B4857C",
"[  c #D8955C",
"{  c #302D97",
"}  c #453382",
"|  c #4B3583",
" . c #4C3A84",
".. c #4C378A",
"X. c #4D3A8A",
"o. c #523683",
"O. c #533A84",
"+. c #5A3D85",
"@. c #533C8B",
"#. c #5A3E8B",
"$. c #4A3795",
"%. c #543E92",
"&. c #5A3E95",
"*. c #673E8B",
"=. c #593EA0",
"-. c #574589",
";. c #5C428D",
":. c #554293",
">. c #5B4394",
",. c #5A4697",
"<. c #5C449B",
"1. c #595195",
"2. c #694587",
"3. c #63428D",
"4. c #774887",
"5. c #66518B",
"6. c #76548B",
"7. c #624494",
"8. c #694A96",
"9. c #63459A",
"0. c #644B9B",
"q. c #6A4B9C",
"w. c #754C99",
"e. c #695399",
"r. c #73559A",
"t. c #69608E",
"y. c #756397",
"u. c #5E46A1",
"i. c #634AA3",
"p. c #6548A5",
"a. c #6B4CA3",
"s. c #6B4DAA",
"d. c #724EAA",
"f. c #6354A5",
"g. c #6B52A4",
"h. c #6D52AC",
"j. c #7657A8",
"k. c #6E56B2",
"l. c #7354B3",
"z. c #755BB4",
"x. c #785AB9",
"c. c #7B5CBB",
"v. c #7764A8",
"b. c #7C63BB",
"n. c #6F5BC0",
"m. c #7E63C3",
"M. c #853E82",
"N. c #8F518A",
"B. c #894B93",
"V. c #83589A",
"C. c #AF5494",
"Z. c #936796",
"A. c #B17496",
"S. c #865CA8",
"D. c #865BB7",
"F. c #8966AB",
"G. c #9767AA",
"H. c #8872A9",
"J. c #9C76AA",
"K. c #8666B8",
"L. c #9569B6",
"P. c #8E76B8",
"I. c #9A76BA",
"U. c #A969A7",
"Y. c #AC73AC",
"T. c #A578BA",
"R. c #B67CB7",
"E. c #CD6B9E",
"W. c #8265C3",
"Q. c #876BC7",
"!. c #906FCC",
"~. c #8D74C7",
"^. c #9676C8",
"/. c #9375D3",
"(. c #957AD4",
"). c #997DD5",
"_. c #9A7CD9",
"`. c #AB6AC6",
"'. c #A37AC5",
"]. c #AB7DC5",
"[. c #B57CC5",
"{. c #A779D6",
"}. c #E769CA",
"|. c #7AA2D3",
" X c #9985B4",
".X c #B696A4",
"XX c #AF8DB8",
"oX c #B585B7",
"OX c #CF8E96",
"+X c #C689B4",
"@X c #E69BAD",
"#X c #D8A7B2",
"$X c #F8DFA9",
"%X c #9B83C6",
"&X c #9B82D4",
"*X c #9D82DB",
"=X c #A984C4",
"-X c #AB84CC",
";X c #B68ACB",
":X c #BA93C9",
">X c #A789DA",
",X c #B78CD3",
"<X c #A892D0",
"1X c #B795D8",
"2X c #BAABD6",
"3X c #9F84E0",
"4X c #A88BE3",
"5X c #AD93E4",
"6X c #B599E6",
"7X c #BBA3EA",
"8X c #B9A4F5",
"9X c #C595CC",
"0X c #CC90CE",
"qX c #C598D8",
"wX c #E29ED9",
"eX c #CFA9C8",
"rX c #C9A3DD",
"tX c #D7A7D7",
"yX c #D8B8DB",
"uX c #CCA5E2",
"iX c #C8A8E5",
"pX c #D3ABE5",
"aX c #CBB8E8",
"sX c #D9B8E9",
"dX c #C6ABF1",
"fX c #CCB6F3",
"gX c #D4BBF4",
"hX c #E3B6E5",
"jX c #91C0F8",
"kX c #C9C4D3",
"lX c #D4C4DA",
"zX c #EFCBDB",
"xX c #FDECC2",
"cX c #DBC3EA",
"vX c #D3CBEF",
"bX c #DAC8F6",
"nX c #E1C3ED",
"mX c #E4CAEE",
"MX c #E9C9EB",
"NX c #E7D7EC",
"BX c #F9D5EC",
"VX c #E3C5F2",
"CX c #E6CBF2",
"ZX c #EACDF4",
"AX c #EACAF8",
"SX c #EBD2F5",
"DX c #E8D7F7",
"FX c #EED4F9",
"GX c #F3D7F8",
"HX c #F2DAFC",
"JX c #EBE4F6",
"KX c #EAEBF0",
"LX c #F7E8FA",
"PX c #F7F5F8",
"IX c #FCF5FC",
"UX c #FDFCFD",
/* pixels */
".   . X o + : + @ = ; = = o = = o @ : 4 4 4 4 5 6 7 9 5 w r j j j j j j x c m c c P S e i.h.<.u.h.x.m.x.s.{.{.s.l.D.D.D.p.=.&.o.",
". X . X O + = X o & : , = = = = o o o o 5 4 4 6 6 9 9 6 4 8 r g j r h j j j c m c g H x m p.s.<.s.&.h.l.=.l.{.Q.=.p.9.=.=.&.} J ",
"  X . X o + @ . . X O = $ : = = o @ + o o - 5 6 5 6 9 9 6 6 9 r j j j j j x c b S c K J j X.x.p.%.p.x.m.D.s.!.D.$.&.&.&.....} J ",
". .   X o + o X X X X + $ $ o o X o o o o + + 5 7 5 6 9 9 8 6 7 w g j j j x x b m g H U H w <.h.u.l.W./.{.W.D.{.$.o.| } } } J M ",
"  . . . o @ X X . X X X X X X X X o o o X o = = , 6 5 5 9 t 6 9 9 w h j x x x x c c H K P H j s.s.p.c./.{.Q.p.{.Q.} } } J J } c ",
". .   . + = X . X X X X X o o X X o $ $ = = @ @ @ = 6 6 6 9 0 9 8 4 9 g j j x x m j H K K J b o.h.s.s.x./._._.d.`.J J } K m m c ",
". X     + - . X X X X X X X + + = ; : : ; $ @ & @ - @ 6 6 6 9 t 9 9 9 9 r j j x S x m | K o.U e p.m.p.x._.4XW.l.{.&.J g m m c c ",
"X .     + - X X X X . o $ : = o X X @ = ; 2 = @ : & @ - * 6 9 9 w 9 9 w w j j x c k m K J | } J x l.x.m.l.5X_.W.d.l.m e c m c g ",
"@ X     o :   X o @ @ @ o o o o o X o - ; - > : = = = = $ = 6 8 6 8 9 w 9 4 j j b j m H K | K | K %.W.h.!.4X>X4Xl.`.b w c c v j ",
"@ @ X X + - + @ o o o o o o + o o o o X + > ; > > = ; ; & = = 5 9 7 9 w 8 5 8 e b b m K H U K | | c x.l.m./.>X4Xx.D.#.l c v x j ",
"- = + + X * @ + @ o o o o o o @ @ o + o X o = - 8 2 & = 2 & = & 2 6 8 i w w 8 8 r g m H m K K | | K e m.z.x.Q.W.Q.p.d.a b x x j ",
"& - = @ + = & & $ $ @ o @ @ + o + o + o o o o = ; 3 2 ; i ; ; $ , - i 8 8 8 2 2 , e x m H H K I | | p <.Q.3X>Xb.5X!.D.e c c j g ",
"% % - % X - = & = = = $ @ o @ @ @ o @ o o o + = = $ y 2 8 & 2 8 & & = = : ; 8 3 3 5 r b m H M | | | | m m.k.W./.)./.d.l v v j j ",
"% - % # + = : : : = ; = $ & & o @ @ @ o o o + o + + + ; : & > 5 5 & $ $ 2 8 8 w q 8 q r b m H K K | U H %.W./.4X4X/./.L c v x g ",
"% - , % X & - - 2 2 : : : 3 ; $ @ @ $ $ + + + @ $ + + o > ; 2 ; = = $ = $ - q 8 q w w q r m K M K | o.| m _.m./.*X/.l.l.x j x j ",
"t 7 , % + - , , : > 2 > 2 3 2 : = = & $ + + o o @ $ o + o - : - 5 $ = $ + + + 8 q q r r e j m m K } o...M ,.c.x./.*X_.l.j x x j ",
"r g r 9 + > , < , , , 6 8 8 8 3 5 : : & @ @ o o + @ @ @ + + X @ = o o X X o o o y q i e i q h N I K | | | p x.m.!.5X5Xh.M x j j ",
"t a a 8 + 4 w < < , , , - ; 8 8 8 3 3 2 ; = @ X o X o X X O o + o o o o o X + : ; y e i e p i l M I | | | K i.Q.3X4X4X/.K x x j ",
"j a j 8 + q j k 9 , - , - 6 6 6 8 8 8 7 2 2 = o X + o o + + X X o $ = & > 3 i : ; = q i p h p e x I M | o...} /./.4X4X_.} x x x ",
"j j j 6 @ z k c x b b 0 < 0 u 6 6 6 w 8 4 8 8 $ o X X + + o - 4 @ + : l : > d 8 > : 2 3 p i l h p b M I ....m m.n.5X4X_.%.x x x ",
"a l l 6 6 F b b b b b b b d 6 , 0 0 B t q q q 5 o O # = - = & & @ + $ : 8 3 : 3 d = ; = 3 p p l j h M I | X.-.K Q./._.(.| v c x ",
"k l k : s Q b S S b m H H H J k 0 0 s V V V t w r w 7 2 : = - & = @ = $ - 8 i 3 y 3 > - = 8 p q q p q m | X.@.>./.(.3X5X,.v x M ",
"k k z % F r.b S b H H H H H H H P J t V C D R G t r w q 3 4 : : = @ = = $ O v i : 3 : @ $ $ = 8 y i 3 h } ..:.o._./.3X*X,.M M x ",
"k b n + f r.b S S m J H H U I K I K J J D V R _ _ B.k p p q 4 2 : = @ = ; = ; y = = ; = = $ o = j h h l b | @.>.m._.*X>X<.m v M ",
"b b S X y r.n S J H P K P U K U U U | U Y U T M.C.C.C.B.g r r 8 3 : $ + o o o o o o o + o o o $ 8 j b N b  .@.<.{ >X*X*Xf.N N M ",
"A b S + 6 5.S L L L P U U Y | o.| Y o.| Y  .T U B.C.A.R < t j a i 3 = o + o o + o $ = $ p i - = 8 v b L I m :.<.g /.*X*X0.I { ..",
"S S S + , Q J P P U U | o. .o.@. .o.o.o.o.O.O.o.T U E C.M.C.E D v p 3 o + = y = : 3 1.f y 2 y = : l N N  .I :.f.I _.*X*Xf.} O.,.",
"S S S + - S L P P U Y o.O.O.@.@.@.@.O.@.O.@.O.o.o.O.O.#.B.C.B.*.Q m l i i y 2 2 3 > v 1.l i p - $ - 3 h Y m N K.-.*X*X*X1.-.1.b.",
"J S L + - F P P T T T @.#.>.>.7.>.;.#.#.#.#.O.+.@.+.O.O.O.+.4.w.*.*.P b j l 3 3 > : = N f : 3 ; X o o y I  .,.v.f.&X&X*X} :.k.6X",
"J S F + > T U T U Y O.#.>.a.h.h.i.7.;.#.#.#.#.#.O.+.+.+.O.L U #.w.2.3.o.M h e y = + + + + + + o + X & y m @.>.,.dX/.(.Q.X.:.k.<X",
"J P P + - Y T T o.O.+.7.a.c.).&XW.g.8.7.;.;.#.#.;.#.+.+.-.i Y +.-.7.g.g.U S j h - + O > f q i v y 3 3 i l X.,.:.~.m.m.M X.:.u.k.",
"P P P # , T Y O.+.+.#.9.s.^.LXJX&Xz.0.9.7.3.3.3.3.#.#.;.#.y - r >.<.~.ZXD.d.#.N p d p 3 3 N h e e i > $ o h M -.-.k.,.x | { :.:.",
"P P P % , U T o.+.+.#.9.s.Q.7XfX/.c.w.8.7.7.2.2.3.3.*.#.o.8 , r &.>.p.k.s.K.7.3.b b d : $ - $ O = & @ O + & u.u.u.:.M } } | | ..",
"U P P % 2 P o.o.+.#.#.9.i.k.b.Q.D.l.j. X4.N.E ~ D P 3.7.O.8 z :.#.>.%.%.<.:...Y I L b 3 @ @ y = y e N n : > :.:.X.X.v I } } } } ",
"P P S % 2 J T +.@.#.>.9.0.p.X.-.s.a.F.A.( OX` LXC V 8.7.-.5 ,.;.:.%.@.%.:.:.%.X.m N I l q = = & l M l 8 = $ u.,.,.} x Y I } { I ",
"U U s + 7 U | +.#.9.a.h.h.0.N l X.L Q u _ OXLXPX.XB 2.g.t i L O.| :.@.X.%.%.%.<.n r l l i = - = = & 3 2 = 2 X. .:. .j { { } I L ",
"P U r + i U o.#.&.i.c.>X~.h.L n -.e.F F G C < C 6.D 4.J.r.s S j } %.<.,.<.,.%.b.N n l l p = : ; p n p > 2 l X...X. .d { P I I M ",
"U U t + l 3.o.:.9.s.*XPX7Xz.N d d d y V 8.G Q XXXX9XNXNX! A 8 y X.u.u.f.h.u.~.0.N l N l p : : & = 2 p y N 1.,.f.X. .d  .I I } } ",
"U o.9 @ z j.@.&.p.P.DX>XW.l.L 7.7.9.T 6.3.V H.H.r.G.IXUXB.w.9.:.<.u.u.7X7Xm.3X-.F L 1.q 8 $ @ @ > 3 > p f.JXfXm.%.@.h } | } M I ",
"U U 9 = S j.#.>.h.iX7Xm.z.g.b 9.9.9.#.7.r.e.Q 6.H.G.PXUX`.w.h.p.p.u.u.(.vX2X-.n b >.:.h p l & ; N -.N v.~.vXvX6X6XfXbXX.X.g.z.z.",
"U o.6 - c j.&.9.a.W.c.d.h.q.a 9.9.9.7.7.q.Y v.Q H.V.UXIX`.w.z.k.h.h.m.b.v.M j T >.e.0.z.m.~.Q.(.>X(.p.5X6X8X6X6X5X8Xb.m.m././.(.",
"o.o.9 - J *.r.>X9.9.s.q.a.q.z.9.8.q.5.9.j.j.j.r.j.F.0X0XD.8.m.~.(.(. .N b Y Y ;.-.b b.m.).*X*X).*X).s.6X7X7X%XdX6X7Xs.f.f.:.{ v ",
"{ o.w , K #.#.9.7.>.8.>.w.a.T 2.-.a.6 F i 5.v.n F ! w.F.j.4.1XbX/. .b U U O.Y U n 3 -.Q.&X)./.>XGXJXJXfX6X5XP.fXfXfXy 8 2 2 > 3 ",
"{ o.9 * K #.&.9.9.o.8.3.w.w.+.G.w.S.A F z q.I.S n Q ^.1X2X_ XXbXQ.<. .Y Y O.L w 3 -.Y -.~.~._.>XlXNXkXiX7X7X8.fXfXgX3 3 2 8 8 8 ",
"{ +.w , o.>.:.a.k.1.r.V.I.V.~ F.V.pXK.j.7.%XI.1X<X6XF.T U W 6.j.f.%.I l 5 y 2 g X.%Xf.p u v z.>X.XNXNX2XdX8XL gXgXbXp y 8 2 q i ",
"n.9.s , v.%XP.cX&X1.P.j.U..X6.Z.Z.6.S.%X XnXeXJ.*.4.w.#.#.~ ~ g.v p w 3 l F 6 5 i h q q w 1.6Xi.P.7XW.dXfXdX-.gXbXbXp 5 q 3 e h ",
"=.p.u 9 K.qXT.VX;X2X-X>X:XKX[ OXA.oX9XeXU.T E V.w.=Xw.T S 8.3.z.p.:.-. .K.v.i a h q 3 8 r H.aXd.3.K./.gXgXgXf.bXDXbXv Y b.Y ..:.",
"j.u.k B eX$X@X_ Z _ K.H.oX#XxXPX] / ~ ~ B.! B.E D s V w 7 a 4 J h.<.:.x.6X@.9.9.<.| | ,.i.<.a.Y.A.[.>XDXDXDXe.DXDXJX:.*X7X&Xb.m.",
"9.<.z B zX( ' ) ) C.MXU.:X#X$X$XGXlXeX:X! Y.T.U.S.V.D A P s 6.3.F.k.j.(.P.T z l D 5.k.Q.~.;.G Y.Y.R.6XGXDXcXv.y.KXLXvX7XbXvXvXvX",
"E V V C #X` ' _ ( Z HX0XT.eX[ #XhXlXUXNXXXe.:X;XL.[.G.*.2.s H.F.P.b.^.6Xt.P I.y G V a.W.^.~ 6 i s T 6XFXDX:X Xt.KX-.N f.$.e v e ",
"Y.B V 1 @XzXE.E.E.E.MX0XyXzX/ OXsX>XaXNXDXcXcX! ! 0XZXw.~.-.t %XF.(.6X7X5.i y.U.( < j.z.(.~ , @ + s ^.uX1XdX|.jXPXKX1Xf...M { ..",
"B.B C 1 [.Z #XZ.zX( ZX}.E.wX^ Z.>X,XL.P.<XlXXXDXLXLXIXLX* A t T oXQ.~.).;.T 2XXXN.T. .-.g.~ _ q 8 n K.-X=X%XvXvX+XPXJXUXUXKXUXlX",
"IXG D 1 G.0XU.0X0X+XLXhXwXhX( Z.1XT.V.^.P.U.R.DXNXLXIXLX Xu 6.r.uX<X>X&Xv.P.DX<Xr.r. .f.0.e.! 3 3 l j.=Xr.K.LX XJ.UXKXUXKX2XUXkX",
"R.C A < D.,X`.sXR.-XT.:X0XBX9X6.V.J.N.hXyX+XA.,XF.V.L.9XuX1XqXF.T F.;X;X;X-X-XI.-X-X1X<X~.F.K.v.3 a S.oX6.r.e.y.aXPXPXPXbX6.PXkX",
"AX0 D , =.qX0X,X;X{.].I.G.U.N.Z.Y.Z.Z.B.4.R._ 6.T.V.S.S.L.d.w.w.a.a.7.;.#.;.j.-.Y I H Y -.-.r.^.j.e.w.8.e.3.8.L.I.=XI.-X'.,X1X^.",
"T.0 D < #.L.`.L.L.S.=XL.J.J.+X+XoXT.].T.'.'.].].-X].[.].qXAXVXqXI.L.F.F.I.^. XP.v.r.w.q.8.8.8.q.7.7.7.8.q.g.w.q.e.j.>X5XK.F.K.v.",
"S.B V , o.G.F.L.`.I.L.].qX0X[.:X9X,X,XrXHX:X1XqX,X0XqXqXqX,X;X,X,X,X-X,X-X-X,X>X,X-X-X-X-X-X'.I.^.'.'.'.>X).'.^.^.^.{.{.^.^.^.^.",
"S.V t , o.L.L.L.I.].].'.;X;X9XqX;XqX,XqX,XqXqXqXuXuXuXuXuXuXuXpXuXuXuXiXpXuXuXqXiXuXiXiXiXiXrXuXuXpXgXrXtXVXFXcXSXCXaXsXiXiXuXuX",
":XoX# 6 J [.,XT.T.].].].eX;X0X,XqX;X9X1XqXqXqXqXuXqXpXpXuXuXpXiXpXuXsXHXNXcXcXaXcXAXSXcXVXVXsXbXsXVXbXnXcXnXCXCXVXcXVXAXVXVXVXbX",
"R.tX# 6 T yXT.9X].qX;X0XR.pXqXpXqXqXuXpXpXpXrXpXuXpXsXsXsXVXsXVXVXAXAXcXAXmXCXCXCXSXCXCXAXmXGXIXIXLXNXSXLXFXSXGXHXFXHXHXZXZXnXVX",
"R.0X# y B.yXMXLXNXNXNXlXMXGXyXtXpXyXpXsXsXcXcXsXAXAXhXAXAXCXCXFXZXAXZXSXSXSXCXSXSXSXSXSXFXNXFXmXZXHXFXGXSXGXLXSXNXmXLXLXLXZXZXCX",
"DXNX# , G R.+XtXhXMXGXBXIXUXUXUXJXmXGXhXsXhXsXCXVXVXSXAXZXAXZXFXZXHXMXCXZXSXFXCXCXHXZXSXHXGXGXFXSXFXNXSXSXHXSXLXSXZXAXZXAXZXnXCX",
"LXSX, u Z.GXY.0X9XtX9X9XtXhXLXIXIXUXUXIXLXsXhXsXCXAXZXnXSXFXCXGXZXGXcXCXCXSXFXFXCXZXHXCXSXAXZXSXFXSXSXSXSXcXFXZXGXmXGXZXZXZXZXCX",
"9XyX XXXeXLXIXLXyXyXoXR.+X0X9XtXtXyXhXLXIXUXLXJXLXSXVXAXhXAXVXZXCXCXNXyXMXSXCXZXFXSXSXFXFXSXZXmXFXZXHXSXGXmXCXAXZXCXZXFXFXZXAXMX"
};
