/* XPM */
static char *_452_c0feb87289c361a959f6e1cd8409bfcc95d692a324cace1955dbbcb890ef101d[] = {
/* columns rows colors chars-per-pixel */
"64 64 116 2 ",
"   c #020202",
".  c #080607",
"X  c #090906",
"o  c #060509",
"O  c #090709",
"+  c #0B0A0B",
"@  c #1D0707",
"#  c #140807",
"$  c #12060A",
"%  c #120D0F",
"&  c #11100E",
"*  c #0C0710",
"=  c #0E0C12",
"-  c #110E13",
";  c #120D1A",
":  c #131314",
">  c #181617",
",  c #16131B",
"<  c #19151B",
"1  c #1D1C1D",
"2  c #3D0A0F",
"3  c #22151F",
"4  c #201F1F",
"5  c #171121",
"6  c #1A1324",
"7  c #1E1D20",
"8  c #1E172B",
"9  c #211E22",
"0  c #2A1923",
"q  c #20172B",
"w  c #211A2C",
"e  c #251C33",
"r  c #241C3A",
"t  c #2D1F3E",
"y  c #222222",
"u  c #2D2523",
"i  c #282629",
"p  c #2B2B2B",
"a  c #2D223C",
"s  c #31243D",
"d  c #343434",
"f  c #393939",
"g  c #4D212F",
"h  c #2C1D45",
"j  c #2D2144",
"k  c #2E224B",
"l  c #312346",
"z  c #3B2346",
"x  c #3C2B47",
"c  c #33244D",
"v  c #38244C",
"b  c #3B2C4D",
"n  c #332552",
"m  c #352854",
"M  c #3A2A53",
"N  c #3D2B5A",
"B  c #452046",
"V  c #4B2247",
"C  c #4A2C42",
"Z  c #42274A",
"A  c #48224B",
"S  c #462D4A",
"D  c #4C2E4D",
"F  c #422E5E",
"G  c #423455",
"H  c #45335B",
"J  c #49325C",
"K  c #463958",
"L  c #703352",
"P  c #422F61",
"I  c #453163",
"U  c #4A3465",
"Y  c #4D3B64",
"T  c #473368",
"R  c #4C356B",
"E  c #4E396C",
"W  c #51376C",
"Q  c #513A6D",
"!  c #553B73",
"~  c #593D76",
"^  c #563D7A",
"/  c #5B3E7C",
"(  c #424242",
")  c #554170",
"_  c #5B4076",
"`  c #5D417D",
"'  c #61417E",
"]  c #86475E",
"[  c #5D3F80",
"{  c #5E4181",
"}  c #634484",
"|  c #684786",
" . c #6A4986",
".. c #664688",
"X. c #684788",
"o. c #674888",
"O. c #6C4B8C",
"+. c #714E8E",
"@. c #715387",
"#. c #74518E",
"$. c #7A548F",
"%. c #6F4D91",
"&. c #714E91",
"*. c #745194",
"=. c #7A5495",
"-. c #7C5996",
";. c #775399",
":. c #7B559A",
">. c #7E599C",
",. c #835C97",
"<. c #825A9C",
"1. c #88619D",
"2. c #835CA2",
"3. c #885FA6",
"4. c #8D65AB",
"5. c #946BAF",
/* pixels */
"|  .O.O.+.+.&.&.+.&.<.=.<.2.<.2.2.4.5.<.<.+.&.<.<.*.*.&.&.+.O.O. .| | | [ } | [ } ' ' ' ~ ~ ~ ' ' ' / / [ [ [ ' ' ' ~ W W J J J ",
"O.O. . .O.O.+.O.O.O.O.<.<.<.<.&.*.*.*.*.=.<.&.*.&.&.&.&.O.O.O.&.O.O.| | | |  .| ....} } } [ ' } ' / ' } } ..| ..[ [ [ ' ! W U W ",
"*.&. .O.X.O.&...O...&.&.:.:.<.;.*.&.+.&.<.:.=.;.<.;.=.=.&.&.O.O.O.| | O. .O.&.+.O.O...O.O.O.O.X. .O.| | ........| | | | / ~ ! ~ ",
"<.:.=.=.<.*.&.&.&.<.<.&.:.:.<.<.2.<.:.<.<.<.<.;.;.*.=.:.=.<.=.&.O.+.+.| O.&.&.&.O.O.O.O.O.O.&.O.O.O.O.+.%.....%.O.&.&.&.[ [ [ ..",
"<.<.;.;.:.:.&.;.&.<.:.<.<.2.<.2.2.<.*.=.=.:.=.=.*.=.<.;.*.=.$.&.+.+.&.+.&.&.&.+.%.%.&.&.&.&.*.%.+.O.O.&.<.*.:.:.:.:.:.&.X.O.X.+.",
":.<.2.2.<.2.<.;.:.:.&.&.&.:.:.:.*.&.&.&.&.+.+.+.&.*.=.=.*.*.&.&.+.&.&.&.&.&.+.+.%.&.%.&.&.&.*.;.&.<.;.;.;.<.;.:.2.:.:.&.+.+.&.+.",
"<.:.<.<.<.:.<.2.<.=.=.&.O.&.&.O.&. . .+.+.+.+.O.O.O.$.*.*.X.X.O.+.+.+.+.&.&.&.&.%.O.%.&.&.&.&.*.<.&.<.;.<.2.:.2.:.:.:.:.:.&.:.&.",
"2.2.2.:.2.:.:.<.:.:.&.&.X.O.X.O. . .+.+.+.*.&.+.O.&.O.X.O.O.O.X.| +.+.O.O.O.+.&.&.*.&.%.&.&.;.;.&.&.&.<.<.2.2.2.3.3.2.:.:.:.2.2.",
":.2.:.2.2.<.:.&.=.=.&.&.+.X.| +.+.+.&.+.=.&.*.*.+.+.+.O.X.O. .+.+.+.+.O.+.X.+.+.&.O.O.O.%.*.*.;.;.;.:.:.:.:.:.:.2.2.3.2.:.3.2.:.",
";.:.:.:.:.:.:.:.:.:.=.=.&.+.X.+.+.O.+.&.*.&.+.&.=.&.+.O.O.O.O.O.O.O.+.&.&.O.&.+.+.&.&.O.O.%.&.&.%.;.%.%.%.&.:.:.:.2.3.3.3.2.:.:.",
";.;.;.:.;.:.:.*.&.=.+.+...| | | | O.+.&.*.+.$.+.+.&.+.+.%.O.+.&.&.&.+.+.O.+.&.O.O.O.O.......O.O.....%.......%.&.:.:.3.3.3.3.2.&.",
"&.&.;.*.&.&.&.O.O.X.X...| | | | O. .O.+.*.*.*.+.O.O.O.+.+.&.O.O.O.O.| O.O.O.X.O.O.&.O.O.O.%.%.O.%.................%.:.:.2.:.;.%.",
";.&.;.&.&.*.&.&.........| ....X. . .o.O.O.+.*.O.O.+.| X.O.O.O. .O.O.O.O.O.O.O.O.&.O.&.%.%.O.O.%.%.%.%...%...%.....&.&.;.;.;.&.%.",
"&.;.;.;.&.;.&.&.O.O.O.......X.X.O.O.O.O.o.o.o.O.O.O.....| } ..} X.X.X.X.| O.O.O.O.O.O.%.O.O.%.%.%.%.&.&.%.&.&.&.&.&.&.&.&.&.&...",
";.;.&.&.*.&.=.&.&.&.+.+.+.X.| +.o.O. . .o.o.X... ... ...| O.O.X.X.X.X.X.O.O.X.O.O.O.O.O.O.%.%.O.&.&.%.%.&.&.&.%.&.&.&.&.&.&.&.&.",
";.&.&.;.*.*.*.&.=.&.&.&.+.+.X.+.o.| o.O.o.X.| O.o. .o...o.X.O.O.O.O.O.O.X.O.O.&.%.%.%.O.%.%.O.O...........%.%.%.%.&.%.;.....%...",
"%.&.%.&.;.%.;.&.*.*.*.*.*.%.%.%.o.o.O.o.O.o.O.o.o.O.O.O.o.O.O.o.o...%.o.O.O.O.O.o.%.%.O.%.X.X...%.......X.&...O.O.X.X.O.O.O.O...",
"%.;.%.;.&.;.;.;.;.*.*.*.*.*.#.*.*.*.%.%.#.O.O.O.O.%.o.X.o.| | ........o.o.o.o.o.O...} ..} ..............O.O.O.O.O.X.............",
"%.&.;.%.%.;.;.;.;.;.;.=.;.;.*.;.*.*.#.#.%.@.O. .o.o.} } } } [ } { { { { { { { o.} } ..} ........................................",
"&.;.;.;.;.;.;.;.;.;.;.=.;.;.;.*.*.*.*.%.*.O.o.o...} { { } / / ^ ^ ` ^ [ { { [ { { { } { } [ } ..........................[ ..[ [ ",
"+.<.<.<.;.&.&.;.*.*.;.;.=.;.;.*.*.*.*.%.@.O.O.o.o.} } } { { { { { { ^ ^ [ ^ { ^ [ ^ [ ^ [ { { { [ ..............} } } } [ [ [ [ ",
",.,.,.<.:.2.:.:.;.=.;.=.;.*.;.*.*.*.*.*.%.*.%.%.O.O.O.o.o.o.o.{ { { { { { { { { { { { { / { { } [ [ ..[ [ [ [ [ [ [ Q { [ F ! v ",
",.,.1.,.1.<.2.<.>.=.=.=.=.=.-.=.#.;.*.*.*.*.*.%.%.%.%.o.%.O.o.o.o.o.{ { } { { { { { { { { { { [ [ [ [ [ [ [ [ A W ! h U U 6 J z ",
"+.,.,.,.1.<.<.<.-.;.-.;.=.-.-.=.#.*.*.*.%.*.O.*.@.%.%.%.O.o.O.o.o.{ o.{ { } } { } { } { { { [ / [ [ [ [ / v ^ I + e G < - ; 6 q ",
"+.| ,.,.<.,.=.$.=.=.;.=.=.-.=.-.*.%.*.%.%.%.%.%.%.%.o.o.O.o.O.O.o.{ o.{ o.{ o.{ } } ' ` } } { } } / [ / E a M K + , ,       o + ",
",.,.O.,.$.$.,.&.=.=.=.=.=.=.-.=.*.*.%.%.%.%.%.O.o.%.o.%.O.o.o.o.o.o...o.{ o...o. . . .| } } } { ` } [ { _ K , = o   o   o O i   ",
"+.,.+.,.$.$.$.*.=.$.$.*.*.$.$.+.%.O.%.%.#.O.%.O.o.o. .o.o.o.o.o.o.o.{ { } } ..{ } } | ' } ' [ { / / / ^ ^ ! 5 = O o = 7 , * o o ",
"+.+.+. .+.$.,.$.=.=.$.+.+.+.+.+.%.%.O.O.o.O.o.o.o.o.o.o.o.{ o.{ { o.o...} } } o.} } ' ' ` ` / / ! H 9 G I U M ; + =   o       = ",
"'  . .+. .,.@.$.$.$.#.+.+.+.+.+.@.%.%.o. .o.o.o.o.o.o.{ o.o.{ o.{ ..{ { { } { { ' } ` ` ` ` / / / M   o : H T o = w           - ",
"' +.$.'  .' J @.@.$.+.@.#.@.+.+.@.o. . .o.o.o.o.o.{ { o.{ { { { { { { { { ` ` ` ` ` / / ` ~ / ~ ! E a   o 5 I e o   o       o + ",
"'  . .$. .,.V J ~  . .} | | | ' { { o.o.` } { { { { { { { { ` { { { ` ` ` { ` _ / / ` / / ~ ~ ^ ! ~ Q e ; : *   o           , + ",
"'  . .'  .' B ' ' | | } | ' ' | { o.{ { { { ` { ` ` ` ` { ` ` ` { { ` ` _ _ ` _ ! ~ ~ ! ! ! ! ! ! Q Q b *       ;           = o ",
"` ` ' ' ' ~ s q ' ' ' ` ' ' } { { { ` ` { [ [ ^ _ ) Y Y Q Q ^ / _ _ ` ) ^ ^ E ! Q ! Q R R ! T T U I T T v .     O               ",
") _ ~ ~ ~ ^ s , ` ` _ _ ) U M l h a a j e 5 o o       o O , E E R R R R R T T T I T T T I T T I I M e s M M +                   ",
"J J J K G x , o o                           o       o + - X e R R T T T T T T P P P P P P N N n l q o ; l 6 r *                 ",
"                                                  O + O O o + G T I I P N N N N N N m m m m m q + + ; 6 o o o O o               ",
"o o                           o         o     o & , O O O o O - m N N m m n n n n n k n k k k 6 ,   o o       o q 5 o           ",
"  o           o   o     o o           o     o 7 = + X + + O O o e n n n n n k n c k k h k k k j 6 = 8 ,   o % o * +             ",
"    o     o o   o o o                     + : + + O X O O + O . O r k k k k h A B j j j j j j j k j h 3 % 9 $   o o             ",
"      o   o                             , : + O O O + O O O O . O - ] Z j l k A l j j j j j h t , ; ; $   o o o o   o           ",
"  o o     o O O   o     o           o p 7 o X X O O O + o O + X O + g L D z l a                                                 ",
"        o , 1 y y 1 y : X     o   + : > : + o o + + O O X O O o O + $ C D S Z <                                                 ",
"      : y p p y 1 p f d d y 7 y 7 y > X > : O O & + O O O O + + + $ + < 3 0 6                                                   ",
"      y 7 7 y y 1 1 1 1 : 7 d ( x & : : > & X + : + O X O O + + + + + + $ O                                                     ",
"      4 7 4 7 y y i y y y y y : > & : : 1 & O + + + O O O + X . + X $ % %               O O O o o o                             ",
"      4 4 4 4 y 7 7 y y y y y 7 X y > 1 7 + O + X + O + O + O + + . . O                                                         ",
"      4 4 4 y y y y y y y y y y X p y p 7 o         + 4 % O O : +   .                                                           ",
"      4 7 4 y y y y y y y y y 7 X y y y > & + & & : & i % + % +                                                                 ",
"      4 1 y 1 y 4 y y y y > & : X y p p p >   X : : y > + X .                                                                   ",
"      4 4 y y y y y i y 1 + X + X i y d f p @ . >   : & . . . o                                                                 ",
"      1 1 1 1 4 y 1 y > + X o o o 7 1 y d 4 X X :   1 O .   . o                                                                 ",
"      1 y 4 y y y y 1 : + X X + o > : 7 d u 2 # % o % + . . .                                                                   ",
"      > > 4 y y y y > & & O O O o + + > > % . O &   + + X O .                                                                   ",
"      O & > 1 1 7 y 7 & + X + X   : & + & $     +   : > + .                                                                     ",
"        X & : : : 4 7 + O X o O   > > & 1 : O + : + + > .                                                                       ",
"      o O + + : : 1 1 + O = + X   & + + & $ O O . o O 1 .                                                                       ",
"      O .   + - : 7 : + O + o     . % + : o       o + .                                                                         ",
"      O + . . . X & X + X O X .   . O O X         . O                                                                           ",
"      X . . . . o   X O . . o     O .   . .   o X .                                                                             ",
"      . . . . . o X o     .   .   .   .   . . . O                                                                               ",
"      O + O . . .   . . .   .     .   .   .   o o                                                                               ",
"      + + . .   . .   . . . . .   o .     o . o                                                                                 ",
"      O     . . .         .       o   . .   o o O X o o o o                                                                     ",
"      X . .     . . . .     . .   .     . . + + O o o     o o o o   o     o                                                     "
};
