/* XPM */
static char *_8845_ca1c8c354e59f43ff8eced00ce7b43681d14fe5c115f45e3617dd3423ec93cfe[] = {
/* columns rows colors chars-per-pixel */
"64 64 256 2 ",
"   c #785E91",
".  c #6B6685",
"X  c #6D698B",
"o  c #73648D",
"O  c #6C6B97",
"+  c #776795",
"@  c #7D659B",
"#  c #746C9B",
"$  c #7B6A9B",
"%  c #73729D",
"&  c #746DA3",
"*  c #7B6BA3",
"=  c #7C6AA8",
"-  c #6B73A6",
";  c #7972AA",
":  c #7D6DB3",
">  c #6C78B2",
",  c #7975B8",
"<  c #7B79C6",
"1  c #87659B",
"2  c #85649C",
"3  c #9A5FB1",
"4  c #8D63A4",
"5  c #8B65AC",
"6  c #8569A8",
"7  c #9364A5",
"8  c #9463AC",
"9  c #9963AE",
"0  c #8572AA",
"q  c #856CB4",
"w  c #886AB7",
"e  c #8C6CB4",
"r  c #8C6CBC",
"t  c #9564B4",
"y  c #9B63B4",
"u  c #9565BA",
"i  c #9B64BB",
"p  c #936BBD",
"a  c #9A69BA",
"s  c #8273B3",
"d  c #8777B6",
"f  c #8373BC",
"g  c #8B72BC",
"h  c #9473BB",
"j  c #A162BB",
"k  c #A965BA",
"l  c #AC6DBC",
"z  c #A45EC5",
"x  c #8B6CC3",
"c  c #9C65C3",
"v  c #9A66C7",
"b  c #946BC4",
"n  c #9B6BC4",
"m  c #956DCA",
"M  c #9B6BCB",
"N  c #8475C3",
"B  c #8B72C4",
"V  c #8B74CC",
"C  c #887AC9",
"Z  c #9472CD",
"A  c #9C73CC",
"S  c #9778C8",
"D  c #9D6DD3",
"F  c #9A6DD8",
"G  c #8A7AD6",
"H  c #9475D3",
"J  c #9B73D3",
"K  c #947AD5",
"L  c #9D74DB",
"P  c #947CDB",
"I  c #997AD9",
"U  c #A264C4",
"Y  c #A465CC",
"T  c #A26BCC",
"R  c #A968C9",
"E  c #B365CD",
"W  c #A474CB",
"Q  c #A666D3",
"!  c #AC65D4",
"~  c #A36CD3",
"^  c #AA6AD4",
"/  c #A56CDA",
"(  c #AB6CDC",
")  c #B668DB",
"_  c #A777D7",
"`  c #A472DC",
"'  c #AB72DC",
"]  c #B476DB",
"[  c #8B7EE2",
"{  c #9A7AE5",
"}  c #AC6EE4",
"|  c #B36BE3",
" . c #B969E7",
".. c #BC6BE5",
"X. c #A474E3",
"o. c #AB72E3",
"O. c #AB78E7",
"+. c #A47CEB",
"@. c #AB7BEB",
"#. c #B677E8",
"$. c #BB74ED",
"%. c #B96DF2",
"&. c #AC7AF3",
"*. c #BB74F3",
"=. c #B67AF5",
"-. c #BD7CFB",
";. c #C566DB",
":. c #CA71D6",
">. c #C465E4",
",. c #C36BE3",
"<. c #CB65EB",
"1. c #C46CEB",
"2. c #C968E9",
"3. c #D468EC",
"4. c #C677EB",
"5. c #D675E9",
"6. c #C46DF3",
"7. c #CB6BF3",
"8. c #CB6DF8",
"9. c #D967F6",
"0. c #D36BF3",
"q. c #DC6BF5",
"w. c #CC74F3",
"e. c #C37CF4",
"r. c #CC7BF4",
"t. c #C776FA",
"y. c #D473F4",
"u. c #D37BF5",
"i. c #DB78F7",
"p. c #D474F9",
"a. c #DB74FA",
"s. c #D57AFB",
"d. c #E868F9",
"f. c #F767F9",
"g. c #E875F1",
"h. c #E676F8",
"j. c #6C89B8",
"k. c #7A84C9",
"l. c #7390CD",
"z. c #7B87D7",
"x. c #73B2DA",
"c. c #7A9BE7",
"v. c #7A95EB",
"b. c #77B2ED",
"n. c #77CACA",
"m. c #78C7E8",
"M. c #78CFF6",
"N. c #73F0F3",
"B. c #9287B9",
"V. c #8586CB",
"C. c #8786D8",
"Z. c #9785DA",
"A. c #9190D3",
"S. c #A785DD",
"D. c #AE90DB",
"F. c #AFB6D8",
"G. c #8B89E4",
"H. c #9D84E4",
"J. c #9787E9",
"K. c #8A95E8",
"L. c #9697E9",
"P. c #8D8DF1",
"I. c #998AF3",
"U. c #879AF4",
"Y. c #9997F6",
"T. c #A685E8",
"R. c #B787E9",
"E. c #A897EB",
"W. c #B997EB",
"Q. c #A483F4",
"!. c #AA88F6",
"~. c #B787F7",
"^. c #A392F3",
"/. c #A898F9",
"(. c #B796F7",
"). c #85A6E9",
"_. c #96A8EA",
"`. c #87B4E9",
"'. c #9EB2EB",
"]. c #89A9F6",
"[. c #99A8F8",
"{. c #86B6F6",
"}. c #97B7F7",
"|. c #A9A8EA",
" X c #B7A7EB",
".X c #A9B5EA",
"XX c #B7B6EA",
"oX c #A6A7F8",
"OX c #B7A7F7",
"+X c #A7B7F9",
"@X c #B8B7F9",
"#X c #C48CDD",
"$X c #C688EB",
"%X c #D687ED",
"&X c #C599EB",
"*X c #D796EA",
"=X c #CB84F5",
"-X c #C38BF3",
";X c #C685F8",
":X c #DA84F4",
">X c #D786F8",
",X c #D48CFA",
"<X c #CB92F4",
"1X c #C699F8",
"2X c #DA94F4",
"3X c #D698F8",
"4X c #E295EC",
"5X c #E382FB",
"6X c #E789F8",
"7X c #E38CFB",
"8X c #F487FB",
"9X c #E897FA",
"0X c #F699FD",
"qX c #C8A6E9",
"wX c #D8A5EA",
"eX c #C8B2EA",
"rX c #D7B8EB",
"tX c #C9A5F8",
"yX c #D8A8F8",
"uX c #C8B8F8",
"iX c #D6B7F7",
"pX c #F1B9EF",
"aX c #E6A7F9",
"sX c #F8AAFC",
"dX c #E6B8FA",
"fX c #F9B9FD",
"gX c #8ED1ED",
"hX c #89C7F9",
"jX c #99C6FA",
"kX c #86D7F8",
"lX c #97D5F8",
"zX c #B0CCEB",
"xX c #A7C6F8",
"cX c #B8C7F8",
"vX c #A6D9F9",
"bX c #B8DAFA",
"nX c #8BE7F9",
"mX c #96E5FB",
"MX c #8DF0FC",
"NX c #A5E6FC",
"BX c #B8ECFD",
"VX c #C6C5FA",
"CX c #D9C6F9",
"ZX c #CCD0F2",
"AX c #D5D7F9",
"SX c #EECBEC",
"DX c #EAC8FB",
"FX c #F8C7FD",
"GX c #E8DAF9",
"HX c #F8D9FC",
"JX c #CFECFB",
"KX c #E7E6FA",
"LX c #F8E6FC",
"PX c #EDFDFE",
"IX c #F6F6FD",
"UX c #FDFDFD",
/* pixels */
"L X.&.&.(.!.P x w m +.} F T.Q.J.< , : 5 @ 2 5 < C S S e 2 2 , L.R.;X~.~.| &XdXdXH.4.0.a a h 5 ] ..w.w.w.e.R._ C < , > - - ; : S ",
"O.} { z.z.H 5 5 I P.+.) ;.-X=.e.x R.] z 4 4 6 * $ 6 , C.Y.3.e.;X7.6.~.;X} <X=X3XH.=X<.E + # + * 6 u A A g - - > - & q I S r w N ",
"+.G 5 5 m &./.I.< < x.M.b.G.v.b.G.H Q w.e...a + + 6 0 , U.q.*.s.h.p.t.=.=.,X;X=XT.~.<.,.e + # ; $ # O # - - & s S Z A M A W ~ _ ",
"V t J J x (.OX< w N l.b.b.x.G.G < k.< > < H p 6 2 * 6 : C I.~.s.i.2X,Xe.r.9X>Xt.Z.^.) >.,.A O # & # # * g b _ ~ ` ~ ( ' ( O.~ ~ ",
"n Y.V q m |.+XE.T.Z.h C : : x J x N N < l.< F c a n c M H ~.;X>Xh.<X3X*.<XFX8X>XJ._.M >.>...W a h W ] #.( ) ' ( ' O.T ] _ h + O ",
"G.x : = = & , C.L.J 5 2 + & @ = = 4 5 = > , H } >.) ! 6.,Xt.7.7.a.3X3X$.*XHXdXyXG.v.f R >...) ..) ..) | ' _ S b _ T t 0 2 * 0 0 ",
"r s S X.[ [ Q.!.OX^.!.8 2 + @ @ 2 z t 2 & & N F @.6.2.>.=.>X<. .6.#.=.} 3XdXyXtXK.v.j.4 ..) ;.,.,.) W r g 0 e T T h e 2 + + 1 + ",
"& S._ G.K.G.C.].oX/.I.U 2 2 @ 4 @ 3 8 8   < K / ( | 8.<.2.~.7.| ! Q.R. .=XsXsX3XY.P.f + $ 5 0 0 & O - O * n ~ W * * $ 2 h 4 @ o ",
"W ~ r r 5 5 p J L.uX=X-XM 1 2 6 5 4 i ) ] F $.t.8.t./.t.>.=.u.) Q @.<X( R.2XqXCX+XK.> * + X X X X X . # e W A h 2 $ $ @ @ e e 0 ",
"n C E.I.P H.E.oXVXZXrXiXR.S 5 5 5 6 u | ~.=.t.%.e.t.!.>X<. .<X .Q !.~.' R.,X~.W.U.J., $ + . X X . o $ e S T 0   6 g S S h e h 0 ",
"V A.G.G.G.[.jXjXlXJXoXI.C.: : D.D m r z  .s.=.e.8.t.-.r.<.>.E.w.Q !.#.U #.=.a.~.z.: V.0 * # + $ 0 e g h 2 + s Z.s X . o 1 % + + ",
"f 5 : : < k.v.c.).).C.G G V V 6 = s , S R.3XaXaX6Xa.6.t.=X7.(.1.D T._ c ' ) 1.r., * C 0 * $ 0 6 6 2 2 6 S C 0 $ X $ $ 0 ; : s d ",
"M I P K.[.Y.P.G.J.C.P J.{ H C G B 6 = b qXD.A.rXDXpXh.0.7.>Xw.,X/ !._ m M Y ) u.Z s f S d 0 o o @ 0 S Z.C B.B.# % ; : - - ; B ' ",
"P < C.z.Y.Y./.I.].Y.oXQ.+.{ { V [ C.Z.C.'.W.eX|.ZXDX3X:X9.u.>X=X..+.&.m u i ( 7.#.s f g S S.Z.W S.V I S & # # # ; ; ; , d V.J <.",
"G H Z.[.c.Y./.oXU.[ I.Z.P G.I.J.G P H.J.z.K.+XZXZXAXCXtX9Xa.0X,X..+.!./ i y R 7.3.W A g , g m i A b A S ; X & : g T ) | ' M f ^ ",
"{ +.K , l.kXhX+Xb.P G H Z C P [ L.T.#.J C k.c.BXJXGXdXVX0X9.7X0X=X .&.Q W j U ) 0.#.T n d B.W A S w f B.- 6 W 1.3.3.<.9.3.3.] d ",
"P q : N 5 > k.S { ~ < x q B B P B 4.:.t S & k.b.JXKXFXcXsXg.a.0X,Xw.1.o._ y i R 1.p.,.! b B A.f : s f , M ,.q.9.<.0.7.0.9.0.^ ; ",
"N , N T.L G.+X+X(.E.T.C g B m H K B g A t 5 > {.bXGXfXaX8X9Xh.s.7Xe.p.=._ j i U ] u.a.w.] P N : * e D e.3.9.9.0.0.p.a.9.4.b & O ",
": Z.X.R.R.^.~.2.9.9.>XR._ Z g p Z V N H.R 5 j.].JXDXVXsXd.9.a.h.9X=X<X*.&.T i c Q $.>X5Xs.e.o.] ( ..a.d.q.0.y.s.:X>Xs.w.h % X X ",
"Z.F &.~ ~ Q ~ !  .<.9.d.>XZ.E.< f f Z.V ] U k.{.ZXyXdXh.d.9.9.a.>X>X3X<X*...c i n #.<X9X9X5Xi.q.d.q.q.w.s.i.:X8X6Xh.p._ & X X X ",
"o.#.Y v J Y Y Q ^ |  .<.0.-XOXP H.C P H.#.E > }.VX0X8Xd.d.q.d.9.a.:X%X&X=X4.~ c U ! R.rXDXFXaX2X%X>X7X7X9X0X0X0X5Xh.$.& X . X O ",
"6.) U U T Q Q ~ ! ! ) <.<.6.;XOXC Z.H < W.R k.U.OXg.:X%X%X4.4.w.0.i.>XyX*X$XR.Y U W #.<XGXUXUXKXGXHXSXFXFXFXsX0Xh.h.] O % % ; 6 ",
"*.) z Y Y Q ( ( ! ) |  .6.8.8.3XZ.(.H P L.+.(.P T.$XT S.DXaX3XS.>X2.>X2X&XaXyXO.U ^ ..4.aXHXUXUXUXUXUXUXUXHXfX9X5Xr.S - # : Y ,.",
"*.>.) ) ! ! } @.1. . .%.8.t.p.h.tX^.H J..XOXK w H ~.D.#.w.u.=Xe.R.<X,.4.2XyXwXqXW.^ | y.6XfXHXUXUXUXUXUXUXHXFX9X5X_ S , s ..<.2.",
"=.6.%.6.*.%.~.(.i.7.t.8.t.t.8.9.3XoXZ.G.@XT.J V G.R.w.w.~.T.G.T.e.1X<X4.u.*XdXCXR.X.| 1.i.h.0XfXHXLXLXLXHXFXaX0X%X~ r.f Z q.<.>.",
"&.t.t.p.p.;X!.oX,X9.6.1.t.8.w.0.3X, _ T.Z.I L K (.w.,X&.z.0 6 : q S.&X$Xy.5.&XiXeX<X$.#...h.8X0XfXFXFXfXsX9X>X5X_ =Xu., 4.q.0.>.",
"-.a.d.h.d.q.6.} S.tXd.9.s.s.a.d.3Xg $.1XT.' ~.=Xu.6XT.V.= W wX] W p _ -X%X3.:.rXuX@XuX(.=.6.y.8X0XFXFXsX0X8Xa.3.R y.R.V 9.3.p.<.",
"6.7X@X+XtX3X:Xu.4.T.2Xf.d.d.9.d.3Xe *.1X@.u.u.u.%XT.: h aX,X,X,X,X#XS T $X$Xr.<XrX XOX&XtXR.t.h.8XsXFXfX0X9X7X,.;.h.S.] d.3.p.6.",
"J.t.tX+X@XyXcXN.@X1X1XqXg.f.d.d.dXu t.3X@.5Xi.>XO.; l 3X| &.} }  .$.aX_ n *XR.#.&X3XuX&XtXuXW.u.h.0XsXsXsX9X,Xu.d.i.T.r.3.3.7.<.",
"+.-.t.;X1X3XxXA.I.~.*.O.`.@X8X6XyXt a.2XR.9X%X$.T h 3X=.+.Q.&.&.( o.4.dX_ M <XD.1X1X3X$X3X1XiXdX9X6XsXsXsXaX>X8Xh.g.R a.9.>.>.<.",
"X.( ! | -.s.1XE.L O.%.@.XXvXZXfXdXS 4.,XiX3X#.R.p W.$.*.*.6.6.6.( / o.$.yXW U &XqX~.:Xg.7X>X<XyXdXSXFXFXDXDXaXsXa.5...q.o.Y >.>.",
"Y c j n c ( *.=.1XZ.+.H.`.@XZX0X9XtXS 1XE.4.Z.|.W 3X<.0.>X;X<X>X2.} } } =XDXA ~ &XqX-Xy.3.6X5.<X3XwXAXAXCXyXaXdX:X:.y.=XL s.2.<.",
"L c u t u i U ( ~.#.tX#.).jX3Xa.a.t.E.G.{.R.m., _ s.w.OX}.}.hXjX9X1.} }  .tX&Xp A -XiX3X4.7.3.5.6X3.;.w.a.5XyX9X9X! ..( 2.y.>.,.",
"{ D b u 3 y y i U O.R.O.~.`.tX1X,Xa.r.(.`.b.N.s tX=XtX}.C.V G z.hX<X%.%.%.$.LXD.g J W.CXwX$X%Xq.g.h.5.:X9XwX9X%X) >.3.0.7.#.n ;.",
"P L M i y t 3 u j i ~ oXA.oX X1X(.yX6X2XrXvXx.S W.3XuXG.Q E ;. .J.@Xw.-. . .eXGXr k.T.1XLXrX&X9Xw.#.-X,X,X<Xi.;.;.g.g.*XqXr E ;.",
"H G L D M c i i y y u ~ [.kXgXlXW.uXHXfXaX.X% W.E.tX+Xv ) y.3X9X9.[.2X!.%.| W.IXE.V.P.W.bXLXXXdX9X_.xX6X8Xh.3.) 3XwXuXVXu E ' !.",
"b b m Z m I ~ Y U c y i / >Xf.6XdX=XDXyXZX.X* W.@XxX_.E i.3XOX@XCXT.cX=.=.%.=.KXW.V.Y.1XKXGXCXyX9XT.,Xh.d.4.Z. XiX@X'.T.m G.V.V.",
"y i i c u b m { ` Q z c Y R.g.f.6Xu.*XaXN.j.d S.xXxXC ) <XOX{.hXlX3XL.1.~.=.=.GXW.C.Y.uXLXyXqX0X,Xs.0.:.W r XXiX2X XoXG.C.C.G Z.",
"e.;X$XR.$Xr.) Y D +.=.} o.E.+Xd.5.$XuXyXMXm.XXl.MXhXA 4.+X{.c.v.M.CXT.4.-.-.-.CX XA.(.eXHXXX.XqXaXo.S B .Xx.nXNXL.K.K.G S.B I G ",
"+XxX}._._._.'.@XOX~.~.-.=./.m.,X4.e.6XaXVXuX$Xm.N.).R -XhXz.D L b.xXtXs.!.-.t.uX XK.OX@XFX(.@XOXR.G k.`.m.hXb.K.^.^.L ' $.(.G g ",
").< x i c n r , _.+XOXtXt.!.z.>X%Xe.q.h.i.e.j.N.M.b ;.+XK.m ` ( G b.iX,X!.-.t.iXOXK.|.1XcXW.4.4.h F.`.`.[.U.L.|.D.3X4.( ^.V.@ w ",
"i y i v u u i 3 a g +XOX1X{ S 5XyX1.| 1.o.l.N.N.C Y <X}.Z M ` ` V c.VX2X&.=.t.iX@X]..X&X(.-X3XqXXXvX'.A.A.@XF.KXKX3X/._.: 1 1 6 ",
"i i c < x u i i u t N (.~.} W.4X#.C.c.v.m.N.n.B.R ;.+XK.T F ~ M b C.bXsX=.-.t.dXXX[.xXbXxXxXgXvX@XL.XXVXcXAXJXBXlX@Xg e 1 1 1 5 ",
"u B Z.C C.b u y y a e XX>X| xX<XH.b.hXhXM.m.d R ;.&X].~ Y o.M U n V.gXFX*.~.p.aXGX}.}.hXgXlXjX X XSXuXcX@XmXlXXX'.V.5 y 7 7 4 5 ",
"G I.( c p B n y y i u .X2X1X@XR.b.tX,XkXx.a ~ ;.*XxXZ.! ~ / v M U G m.HX=X!.1X5XCXAXzXF.F.LXSXFX0X9XrXVXVX|.cXDX^.b 9 i 3 9 8 i ",
"!.!.!.! b u a u y y u }.uXC.&XJ.].<X}.A.n ) 3.eXNXY.X.~ M c c v Y L x.GX*X(.(.>Xh.dXFXFXdXpXGXGXZX'.|.OXtX(.}.nX, t 4 B p t E ! ",
":X>X(.] j u i u y t r z.L.D.e.G.M.{.C.Q ) 5.ZXmX].{ I M J n U v Y ^ ).JXfX3X(.tX6X6X4X*XCXAXVXuXqXCXKXdXyXyXOX#.n a 9 1 t c R $.",
"hX+Xi.e.j t a i y y p C P fX .G.b.m / | 3.CXmXK.+.H m A J n c ~ ~ ^ K.mXLXsX&X@XZXeXpXpXSXKXJXJXBXmXnXmXhX+X(.OX#.E l 3 i ) ^ *.",
"/.].s...c u t y y j b m W.#.,.L D ^  .*.rXbXc.J.{ J m m i i c F Q X.J.hXBXKXAXKXKXIXPXPXPXJXcXoXoX/././.oXOX/.!.;Xe.>.;.U } &.~.",
"[.oX;X .3 t t 3 y y n L E.O.1.) ) 2.-.3XcX`.m J.J b m p u c c c ( &.Q./.xXxXxXvXBXBXZXcX@X/.(.~.Q.!.!.~./.I.Q.~./.[.[./ #.} &./.",
"].oX(.*.j 3 y 9 t y c J OX@.4. .3.~.u.rXhXf b P H b m J c c m D Q } &.I.P.I.Y.[.xXcXuX(./.oX1X7Xh.;X!.Y.(.I.+.=.Q.}.].I.~.=.I.Y.",
"P.b.OXR.j 9 t t y y ^ H (.&.5.q.<X;X3XjXl.a u K H Z b m j u c D X.X.X.+.I.Q.{ OX@XuX@X(./.oX1X5Xq.~.!.I./.%.-X1XI.I.G.]./.-.!.Y.",
"].M.@X*X3 9 y 8 3 i M H OXt.dXyX1Xi.xXb.y y i Z H c n t t U D ~ / F X.X.L Q.+.E.@X@XVXuXtX/.oX(.;Xt.!.!./.;XT.(.!.P.P.b./.-.Q.Y.",
"+XkXVX5.3 9 8 8 j i m / [.~.wXlX*XtXhXe 9 y u r A n i t t u c m F +.{ +.L X.o.` J.Y.@X@X@XOX1XH.[.@X-XY.U.Y.R.+X/.P.+.G /.U.I.oX",
"uXM.AX:.j 8 9 9 j i M J H.!.CX@XyXNXJ.y j y y t b U u p u t y m D !.@./ / D m D I !./.Y././.Z.L.J.[.OX(./.I.!.%.1XI.I.G Y.].~.[.",
"VXkXCX:.t 7 9 8 i j n ~ ` W.uXCXuXlXR.n j y t y t m b u y 9 9 a T D / X.@.!.L X.E.L.J.[ V H H H I P Y.[.oXuXOX(.1X;XJ.Q.J.Y./.oX",
".XM.dX*Xy 7 7 9 j U c T / &.jXbXlX/. XZ.b u 9 t 5 t A U U 3 8 8 8 3 c H X.^.R.OXZ.x n n b m M H Z m B C K.}.oXoX/.[.Y.!.[ U.Y.Y.",
"/.kXDXqXj 9 7 8 3 U M c T 1X!.OXOXoXC.u y 9 9 9 7 7 5 m L D M a t u b D Q.R.ZX'.Z M D D L ~ m b m m m p r C C..Xe.{ { !.{ J././.",
"oX{.JXdXl 3 9 7 9 j U ^ ! ~.~.-XAXV.t y y y j 8 8 5 7 7 w N B J r v F +.W.uXZXL.~ / / ' X.O.Q b m m m p p w r , @X@.Q.&.{ { E.OX",
"Y.L.bX9XdXk 9 7 7 y a ~ ! ,X~.oXxXt y i 7 7 4 8 9 4 8 4 1 1 4 W t m } R.uXVX+X#.;.>.6...| @.%.L ~ Z m b b p e x < @X~.J.&.X.+XoX",
"Y./.}.2XtXR.j 9 8 t a n v ( ~./.).C 8 7 y 7 1 1 4 7 7 6 4 8 c b M ~ *XAXbXOXyXrXDXCX&XwXd.-.%.( L L M M M b e r H l.OXO.(.^.}.}.",
"{ I.}.tX~.oXR.z j c c n ~ +.!./.E.`.d 4 4 7 7 4 4 4 8 y u v ` ` T.W.DXIXiXyXxXNXNXMXmXNX8Xh.7.} ' / F J M x p w P C b.jXOX+XG.}.",
"{ J.^.@X$XJ._.I. X:.E $X1X_ c t u n u u y i c 3 u u M A J D.tX+XuXCXGXUXDXtXjXNXmXkXnXN.4Xf.8.=.&.o.( ~ L m e t V V C.b.{.J.J.}.",
"{ { T.I.~.T.J._.jX|.+XoX/.Q.I T.&X&X&X=XR.R.W.$X] W Z. XuX.X@XjX@XoXbXJX+XoXiXNXkXgXkXMXfXf.d.d.9. .) O.X.F i u x [ { C.!.Q.].C "
};
