/* XPM */
static char *_062_9a418783b7d4612ec2b1787702417bbcbd631b6e77fff5bd158d3e7af0f07840[] = {
/* columns rows colors chars-per-pixel */
"64 64 78 1 ",
"  c #070709",
". c #08070B",
"X c #07090D",
"o c #0B0C0E",
"O c #0E100F",
"+ c #060A12",
"@ c #0C0D12",
"# c #0B0E19",
"$ c #100F13",
"% c #0E1012",
"& c #0D111B",
"* c #121215",
"= c #13151A",
"- c #18171D",
"; c #16191D",
": c #18191E",
"> c #0D1422",
", c #0E1825",
"< c #0E172A",
"1 c #0F1A2A",
"2 c #111622",
"3 c #141A24",
"4 c #191B22",
"5 c #11172B",
"6 c #131C2C",
"7 c #191E2B",
"8 c #0F1E31",
"9 c #131E32",
"0 c #1B1F32",
"q c #141F38",
"w c #17212E",
"e c #1A202D",
"r c #0F2034",
"t c #152035",
"y c #1A2334",
"u c #15233A",
"i c #1A253B",
"p c #16293F",
"a c #1E293D",
"s c #212735",
"d c #222836",
"f c #202739",
"g c #232A3C",
"h c #162741",
"j c #1A2741",
"k c #162942",
"l c #1B2B44",
"z c #1D2E49",
"x c #1E304B",
"c c #1F3350",
"v c #222E45",
"b c #212F4A",
"n c #253146",
"m c #2A3244",
"M c #23334C",
"N c #29354D",
"B c #2C394E",
"V c #30374D",
"C c #323E4E",
"Z c #253652",
"A c #293652",
"S c #263955",
"D c #293955",
"F c #263C5B",
"G c #2B3D5C",
"H c #303F5E",
"J c #273F62",
"K c #2A3F61",
"L c #303F60",
"P c #2C405E",
"I c #30405E",
"U c #264264",
"Y c #2B4264",
"T c #264569",
"R c #2C4469",
"E c #2C486A",
"W c #314264",
"Q c #304569",
/* pixels */
"UUUUUYTTYYYRRYYTYTRETYTRUTRTTRTTTETTRYTTTTTTRTRRRTTJRJRTJJTJJJTJ",
"UKUUUYRYYTRRRRYTETRTTEEEETRRRTTTRERRRTYRTRRJTKJRTRRJJRRJRTRJTJTJ",
"YJUYUYEcTRYRRREYUEQERTRREERRRRRRRRRRJRRRRRTRRRRJRJRTRRJETTRJJRJJ",
"URJTUPPwGRTRREYEYRRRETQRRERQERRRRRRRRRRRRRRRKRRRRRRJRJEEJJJRJJRJ",
"JTYP,t6yMFTYEQREWEERRRRQRRQRRRRQRRKRRRQKRRRRRRRRRRRRJEJJKTRJRJTJ",
"RKPa&w+&&LkRYRGPYREEREQERRRRQRRRQRQRRTRRRJRRRRKRKRRJQJEQYRKKJJKJ",
"Kjj2&&%%waBRRRtiEQRRRRRRRERQRRQRRRRTRRRRRRRRRJRQRQJRJJQJKRKRRJKR",
"Yt2&&&@&6&YRRMa,IRQRQQRQQRRRRRRRRRRRRRTRRRJRRERKRRRJEJJERJRKJJRJ",
"Uq@+@@@#;tRPYF#tYTRRRWYERRREQTRRRERRQRQRQQRRRRKRJRRJKRRKJTJRJJRJ",
"KK9@@@@#2aYi9i%izxGRRRRRRRQQRYREQREKQQRYRJRRKRRRRJRRRKRRYKJJJKJJ",
"&Mb@+&@+>&+iG&#,@nMERRRRQRRRRRWRRQRRRKYRRKKRRRYTRKRKJRTKKKKKJKKK",
"#&6@+@@6w@#lM&&w#eGTRRRQRRQQQWQRRERKKWQRRRYRKTRYJRKRRJJYKRKRJJKJ",
"#+y+@#@+@X6zP&2&13PFWWWQRRYRQQQRRRYYYQWYJRYYTRYRRRRRYYYYYYJKKYKK",
">X+@+&@2&@#23=y63MtxTQEYRRRYYRRYKRRYRRTRRRRRRKYYRKRJKUJYKJYKJJKK",
">@+X#@&2<AaMC#&&gwixEEWQRYRYWYRWQRKRYYYYKRRKYYYKKKQKJYYYUJYKGUKK",
"Z3X@@@=a=v#ly=a>&wPZWYRRWQYWEYYYRKQRWYYWWKRLYYYYRRLKKUJKKYUKGKGK",
"v+.+@@&>tg4Av3ByV66aYYQQQYWWTTEYWEYQYYWYRJYYKRYYKJRJYUKKYYGUGFGK",
"=+@$@@#f227v>2&i63iFYQYQWRWWWWYYYYYPQWYYYYKWYYKKRKRKKKYKKGUKKKUF",
"XX@+@$>>6p@@+@4iYP>wYYQQWYYWEYQEWYYYYYYYQWRYYYYUJJKLYKYKKKGGJGGG",
"3+@@#$53@=#3t#@2w;&pMPYWYRWIYYWYQYWYYPYLYYYKQKYYKRKYUKKJKKKKJFGG",
"2@.@#.@.#50@>3>B67dY;zYQWYYYYYYYYWYYYPYYYUYKYKYPYLGKUKYKKKKKGGFF",
"2#@@$#.@4vf==&=N#fg2gPWWWYWYYYYWWPPWYYYYYWPWWKKGKKYYGKGUGKGGFUGG",
".@@s$.+@d9#@#7#76b&PAZWYWYYYYYWPYPYURPPUYYUYGWYPGKKGYYGFGGGKGGGG",
".@$5#@#0=##222&lNMznwMPWYWWWWIYIPWYPPIYPIPYGYHGJYLWGFKGGKGKGGKGF",
"++@#4$$&5f9n>=+#&&66fWYYPWWYYIPPYPYUPPYPKYGYPKYGAKFKGKKGGGGFGFFD",
"+$-&e.@@#g&3e6g=wyavIGYPYPWPWIWPWPPUPPPPKWKKGGKGKLLKGKGLGGGGGFGD",
"&#325$.@#=g=&&7vZn6D2tYYWYYPPYPIPPYPPPPPYKUGYUGYKKKJGGLDGGGSGSGF",
".+.##$>07#@#@@@yi6269BBIIYIPPYUGPPPPPPPPGKGPPGGGKLKAKGGGGGGFFGFS",
".@.@@@.5=$#i&2X7e3maG=5LIWIIPPPHHWGHPPGPGGPUGKGKDDLLGDLGDFLDGFFF",
"@@@#+.&-@3@@&2&@32733gGWGHIGGYPGHPGWGPGPGGKGKGHGLFDFGGAKLKAFSFFA",
"4$.@+#=.#00>@3#6aZGDDBGGPIYPPYPHGHGIPGGGGKGFGGDGFGGGAKKAAFDDAAAF",
"+..#@..@$379X&=2e&&&neGGPIHHIGGGGGPPGGPGHKGGGGHDFFKAGFDLDDAFFFFZ",
"o..@#+@5i7Nf@.@#@%%i&aPPPIIPHPGIGWHGGGHGPSPSGGGGDGGGAFDGDFFFASSS",
".XX#X55-#00d@#4g&wSBSPBPDPPPGPDGGGGGHDDGGGDPGDGDGDDDFGDDAASSAAAZ",
"..X4##s&&X.@.$2g,233&6nPHGDDGPGGHHGGDGHDGDGGGGGDDDFDFADDSAGSFAZv",
".@@$@#@o@@#+$#80dt2aZxGGGIHHGGGGGGDGGGDGFDGDDGDDDFDGDDSFSFSSAA0>",
"..@#+@#@262#3o#62wyMGGGPGGDGHGGGDDGFDDGFGDDGFFDADFSAFASADAAAAM0q",
".@.$X@=#y0M7n#=4&26tZGGDHCDDDDDDDHDDDFDDDDDDDDDDDASADDSADZAmANvg",
".X=3X@sftbt-vy09<6g6yaDDAHHDGDDFHAADDHDDDDDDDADFDAASAAZSZZMMdffv",
"oXX+@=*#yNN&2yg7>&23@;mBDDDADDADAAAGADAADZSZSZZZAAZAZZZNZNAN2#37",
"X.X#o-@@y6i$s>v76y>jviybSZZSZZZZMZMZZZZZZMxZcxZZZZzZxcxcMMzw6=&&",
"..#$.#@##6>#$#=2ti8lbbjlvzzbzzzxbzzMxxzzzzzzzxzllzllzzllzjtt6&&>",
"$...X@#$>@@@##$@;tppuupiippljkkkljkljlljjlklhjlkhjhkhjhhjp6>262&",
"X.$@.@X@@#@@$#@&@&tuupuuiuuuupjhhhpikjpihhhkphjjphuuupphuu9>&&&@",
"oX@@@&&<2#X@&&>&+%1tqtuuutuuuuuupupuuuiuiuauuiiiuuqququuu8q86>>#",
"=o#<@<89<#X@#>r18&>tqqttuuquuuttuuuruuuuuqtuuuuuquqquuuquq99q892",
"#o>3#<6666@>2686t&,99q8qtttqtuttqutqquuuuuqqiyqtqy99qttq89999966",
"3o>=#<6<66@8<691t6&6tq88t9t9t9tr9ttqqrqquqtqqqqqtt9t9tttt999<<96",
">@>#&>6<1<@669<96999699r96t9wttwwtwwww7777777e773773664633333e::",
"#X>#&2<<<>218665276336477;;;:::4:3:34434444:-:4:444:3-=2=2:===;;",
"&X2&&3332&=:4=-4:4:;;:;:;;;;===;;::::;:;::-4-44-:=4:--===&==;==;",
"*.=@*====%=-;;==:=:::=;=;;;;--:;;;=;;:4:-::44-4-:==========**&**",
"*.=@*==*=@==*====*=*========;;:;=:;::::=-===-==@@==$==***=*==***",
"@.*o@****@**==****=**-******;=*==::**====$==$$=====$=*$=*====*=*",
"o.%o@%*@$X$**%%%*&*%****&*&*****=**;===*$$$*$=***#=========;==:=",
"o o.oo@@@Xo@@%o@%@%*oOOOo*o%*$*$**O*$@$$@@@#oo$$@$@@@$o$$@*o@@%=",
"  O oooo$o$O$OOOOO*OOOO******-*-==-***O$$$$$O$$$$$$*$$$O$$o$o$$o",
"OoO ooOOOOOOoOO*OOO*O*OOOO***********$O$$$$$O$$O**$*********$**$",
"OOOOOOOooOoOOOoO*OOO*O*OO*O****OO*OooOO$$$o$O$$***O****-**$*****",
"ooOOOoOoOOOOOOOoOO*OOOOOOOOOOO%%O$o*O$O$$o$$$******-*--**--*-*$*",
"oooOoOoOoOOOOOOOOOOoOOOOOO*O%%O%o%oO$$oooO$oO$**$$$*$*********$O",
"oooooOOooO OoOOoOOOO$OOoOOOOoOoo%Ooo$oo$$oo$$$$**$*$*$$****O**O$",
"ooooOoooOoOooOooOoOooOOOOOOOoooOoOoOo*OooOOOOOO**OO$$O******O$**",
"ooOoooooooOOooOooOOOOooOoOoooooOooOoooooO.o.OOO*OOO*O*O******OOO"
};
